<svg xmlns="http://www.w3.org/2000/svg" xmlns:xlink="http://www.w3.org/1999/xlink" width="84" height="22" viewBox="0 0 84 22">
    <defs>
        <path id="prefix__a" d="M0.244 0.111L18.382 0.111 18.382 20.699 0.244 20.699z"/>
    </defs>
    <g fill="none" fill-rule="evenodd">
        <path fill="#0538B9" d="M20.497 16.34l1.098-4.927h1.512c2.144 0 3.925.626 3.877 2.604-.053 2.229-2.338 3.152-4.837 3.152-.392 0-.764-.007-1.115-.018-.692-.062-.535-.812-.535-.812zm11.338-2.185c.158-2.236-1.521-4.178-3.756-4.347 2.122-.354 4.927-1.914 4.927-4.786 0-3.067-3.08-4.705-7.726-4.705-2.009 0-4.014.158-5.998.474l-3.33 14.767s-1.15 3.817 2.122 4.612c.839.21 1.697.333 2.561.364 8.688.481 11.2-3.421 11.2-6.379zM23.34 3.746c.664-.078 1.331-.114 1.999-.11 1.754 0 2.99.538 2.955 1.956-.044 1.72-1.791 2.62-4.311 2.62h-.98c-.711 0-.502-.738-.502-.738l.84-3.728z"/>
        <g transform="translate(50.077 .322)">
            <mask id="prefix__b" fill="#fff">
                <use xlink:href="#prefix__a"/>
            </mask>
            <path fill="#0538B9" d="M3.001 20.699c.705 0 2.037-.493 2.49-2.518.361-1.613.968-4.458.968-4.458.473.031 1.128.064 1.89.064 7.444 0 10.033-4.81 10.033-8.06 0-3.548-2.467-5.595-7.848-5.616-1.993-.01-3.98.222-5.919.69L.244 20.7H3zM8.984 3.568c.64-.075 1.285-.108 1.929-.098 1.729 0 3.165.511 3.165 2.589-.058 2.377-2.032 4.256-4.41 4.198-.108-.003-.217-.01-.325-.02-.207 0-.394-.005-.567-.013-1.4 0-1.008-1.167-1.008-1.167l1.216-5.49z" mask="url(#prefix__b)"/>
        </g>
        <path fill="#0538B9" d="M39.403 11.89c0-3.205 2.08-7.99 6.845-7.99 1.705-.042 3.38.475 4.765 1.47 0 0 .48-1.629.618-2.307.135-.663-.111-1.768-2.154-2.427-5.953-2.07-12.456 1.08-14.525 7.032-.5 1.44-.707 2.964-.61 4.485-.4 4.362 2.81 8.224 7.172 8.625.517.048 1.037.044 1.554-.01 1.23.049 2.46-.135 3.623-.54.704-.232 1.242-.807 1.424-1.526l.737-3.31c-1.283 1.047-2.892 1.61-4.547 1.593-2.547.168-4.748-1.759-4.917-4.306-.017-.263-.012-.527.015-.79M7.923 9.317C9.077 6.504 8.89 2.7 7.047 1.87 5.36 1.08 3.443 3.332 3.354 3.45c-.445.57-.82 1.193-1.114 1.854.33.181.962.494.962.494 1.781.866 3.383 2.06 4.72 3.52"/>
        <path fill="#FF7800" d="M13.348 7.151c1.165 1.446 1.283 3.473.292 5.043-2.15 2.803-4.917 5.071-8.086 6.63-1.65.69-3.56.207-4.684-1.185-.336-.385-.629-.808-.87-1.26C11.005 11.405 9.133 2.85 7.048 1.871c1.321.688 2.555 1.532 3.675 2.514.96.838 1.84 1.764 2.625 2.766"/>
        <path fill="#0538B9" d="M76.365 9.317c1.155-2.813.968-6.618-.875-7.447-1.686-.791-3.603 1.462-3.693 1.579-.445.571-.819 1.194-1.114 1.854.33.181.962.494.962.494 1.78.866 3.382 2.06 4.72 3.52"/>
        <path fill="#FF7800" d="M81.79 7.151c1.166 1.446 1.284 3.473.292 5.043-2.149 2.803-4.916 5.071-8.086 6.63-1.65.69-3.558.207-4.683-1.185-.337-.386-.629-.808-.87-1.26 11.005-4.974 9.133-13.53 7.048-14.508 1.321.688 2.555 1.532 3.675 2.514.96.837 1.839 1.764 2.625 2.766"/>
    </g>
</svg>
