<svg xmlns="http://www.w3.org/2000/svg" width="25" height="25" viewBox="0 0 25 25">
  <path id="travel" d="M21.875,25H3.125a3.012,3.012,0,0,1-2.21-.915A3.007,3.007,0,0,1,0,21.875V9.375a3.012,3.012,0,0,1,.915-2.21,3.007,3.007,0,0,1,2.21-.915H6.25V3.906A3.6,3.6,0,0,1,7.5,1.123,3.918,3.918,0,0,1,10.156,0h4.688A3.918,3.918,0,0,1,17.5,1.123,3.6,3.6,0,0,1,18.75,3.906V6.25h3.125A3.125,3.125,0,0,1,25,9.375v12.5A3.125,3.125,0,0,1,21.875,25ZM7.031,10.938a2.348,2.348,0,0,0-1.66,4,2.259,2.259,0,0,0,1.66.683,2.348,2.348,0,0,0,1.66-4A2.262,2.262,0,0,0,7.031,10.938Zm8.594-6.25a1.542,1.542,0,0,0-1.562-1.563H10.938a1.522,1.522,0,0,0-1.1.451,1.489,1.489,0,0,0-.464,1.111V6.25h6.25Zm4.687,10.938-6.25,1.563,1.563,4.687,6.25-1.562Z" fill="#ff7800"/>
</svg>
